<svg class="railroad-diagram" height="195" viewBox="0 0 668.0 195" width="668.0" xmlns="http://www.w3.org/2000/svg" xmlns:xlink="http://www.w3.org/1999/xlink">
  <g transform="translate(.5 .5)">
  <g >
  <path d="M20 30v20m10 -20v20m-10 -10h20" /></g>
  <g >
  <path d="M40 40h0.0" />
  <path d="M628.0 40h0.0" />
  <path d="M40.0 40h20" />
  <g >
  <path d="M60.0 40h0.0" />
  <path d="M608.0 40h0.0" />
  <g >
  <path d="M60.0 40h0.0" />
  <path d="M472.5 40h0.0" />
  <path d="M60.0 40a10 10 0 0 0 10 -10v0a10 10 0 0 1 10 -10" marker-end="url(#arrow)" />
  <g >
  <path d="M80.0 20h372.5" /></g>
  <path d="M452.5 20a10 10 0 0 1 10 10v0a10 10 0 0 0 10 10" />
  <path d="M60.0 40h20" />
  <g >
  <path d="M80.0 40h0.0" />
  <path d="M452.5 40h0.0" />
  <path d="M80.0 40h10" />
  <g >
  <path d="M90.0 40h0.0" />
  <path d="M442.5 40h0.0" />
  <path d="M90.0 40h20" />
  <g class="terminal ">
  <path d="M110.0 40h142.0" />
  <path d="M280.5 40h142.0" />
  <rect height="22" rx="10" ry="10" width="28.5" x="252" y="29"></rect>
  <text x="266.25" y="44">a</text></g>
  <path d="M422.5 40h20" />
  <path d="M90.0 40a10 10 0 0 1 10 10v19a10 10 0 0 0 10 10" marker-start="url(#far-arrow)" />
  <g >
  <path d="M110.0 79h0.0" />
  <path d="M422.5 79h0.0" />
  <g class="terminal ">
  <path d="M110.0 79h0.0" />
  <path d="M138.5 79h0.0" />
  <rect height="22" rx="10" ry="10" width="28.5" x="110" y="68"></rect>
  <text x="124.25" y="83">b</text></g>
  <path d="M138.5 79h10" />
  <g >
  <path d="M148.5 79h0.0" />
  <path d="M422.5 79h0.0" />
  <path d="M148.5 79a10 10 0 0 0 10 -10v0a10 10 0 0 1 10 -10" marker-end="url(#arrow)" />
  <g >
  <path d="M168.5 59h234.0" /></g>
  <path d="M402.5 59a10 10 0 0 1 10 10v0a10 10 0 0 0 10 10" />
  <path d="M148.5 79h20" />
  <g >
  <path d="M168.5 79h0.0" />
  <path d="M402.5 79h0.0" />
  <path d="M168.5 79h10" />
  <g >
  <path d="M178.5 79h0.0" />
  <path d="M392.5 79h0.0" />
  <path d="M178.5 79h20" />
  <g >
  <path d="M198.5 79h24.25" />
  <path d="M348.25 79h24.25" />
  <g class="terminal ">
  <path d="M222.75 79h0.0" />
  <path d="M251.25 79h0.0" />
  <rect height="22" rx="10" ry="10" width="28.5" x="222.75" y="68"></rect>
  <text x="237" y="83">a</text></g>
  <path d="M251.25 79h10" />
  <path d="M261.25 79h10" />
  <g class="terminal ">
  <path d="M271.25 79h0.0" />
  <path d="M299.75 79h0.0" />
  <rect height="22" rx="10" ry="10" width="28.5" x="271.25" y="68"></rect>
  <text x="285.5" y="83">b</text></g>
  <path d="M299.75 79h10" />
  <path d="M309.75 79h10" />
  <g class="terminal ">
  <path d="M319.75 79h0.0" />
  <path d="M348.25 79h0.0" />
  <rect height="22" rx="10" ry="10" width="28.5" x="319.75" y="68"></rect>
  <text x="334" y="83">c</text></g></g>
  <path d="M372.5 79h20" />
  <path d="M178.5 79a10 10 0 0 1 10 10v10a10 10 0 0 0 10 10" marker-start="url(#far-arrow)" />
  <g >
  <path d="M198.5 109h0.0" />
  <path d="M372.5 109h0.0" />
  <g class="terminal ">
  <path d="M198.5 109h0.0" />
  <path d="M227.0 109h0.0" />
  <rect height="22" rx="10" ry="10" width="28.5" x="198.5" y="98"></rect>
  <text x="212.75" y="113">a</text></g>
  <path d="M227.0 109h10" />
  <path d="M237.0 109h10" />
  <g class="terminal ">
  <path d="M247.0 109h0.0" />
  <path d="M275.5 109h0.0" />
  <rect height="22" rx="10" ry="10" width="28.5" x="247" y="98"></rect>
  <text x="261.25" y="113">g</text></g>
  <path d="M275.5 109h10" />
  <path d="M285.5 109h10" />
  <g class="terminal ">
  <path d="M295.5 109h0.0" />
  <path d="M324.0 109h0.0" />
  <rect height="22" rx="10" ry="10" width="28.5" x="295.5" y="98"></rect>
  <text x="309.75" y="113">h</text></g>
  <path d="M324.0 109h10" />
  <path d="M334.0 109h10" />
  <g class="terminal ">
  <path d="M344.0 109h0.0" />
  <path d="M372.5 109h0.0" />
  <rect height="22" rx="10" ry="10" width="28.5" x="344" y="98"></rect>
  <text x="358.25" y="113">l</text></g></g>
  <path d="M372.5 109a10 10 0 0 0 10 -10v-10a10 10 0 0 1 10 -10" marker-end="url(#far-arrow)" /></g>
  <path d="M392.5 79h10" />
  <path d="M178.5 79a10 10 0 0 0 -10 10v29a10 10 0 0 0 10 10" />
  <g >
  <path d="M178.5 128h214.0" /></g>
  <path d="M392.5 128a10 10 0 0 0 10 -10v-29a10 10 0 0 0 -10 -10" marker-start="url(#reverse-arrow)" /></g>
  <path d="M402.5 79h20" /></g></g>
  <path d="M422.5 79a10 10 0 0 0 10 -10v-19a10 10 0 0 1 10 -10" marker-end="url(#far-arrow)" /></g>
  <path d="M442.5 40h10" />
  <path d="M90.0 40a10 10 0 0 0 -10 10v76a10 10 0 0 0 10 10" />
  <g >
  <path d="M90.0 136h352.5" /></g>
  <path d="M442.5 136a10 10 0 0 0 10 -10v-76a10 10 0 0 0 -10 -10" marker-start="url(#reverse-arrow)" /></g>
  <path d="M452.5 40h20" /></g>
  <path d="M472.5 40h10" />
  <g class="terminal ">
  <path d="M482.5 40h0.0" />
  <path d="M511.0 40h0.0" />
  <rect height="22" rx="10" ry="10" width="28.5" x="482.5" y="29"></rect>
  <text x="496.75" y="44">a</text></g>
  <path d="M511.0 40h10" />
  <path d="M521.0 40h10" />
  <g class="terminal ">
  <path d="M531.0 40h0.0" />
  <path d="M559.5 40h0.0" />
  <rect height="22" rx="10" ry="10" width="28.5" x="531" y="29"></rect>
  <text x="545.25" y="44">b</text></g>
  <path d="M559.5 40h10" />
  <path d="M569.5 40h10" />
  <g class="terminal ">
  <path d="M579.5 40h0.0" />
  <path d="M608.0 40h0.0" />
  <rect height="22" rx="10" ry="10" width="28.5" x="579.5" y="29"></rect>
  <text x="593.75" y="44">c</text></g></g>
  <path d="M608.0 40h20" />
  <path d="M40.0 40a10 10 0 0 1 10 10v104a10 10 0 0 0 10 10" marker-start="url(#far-arrow)" />
  <g >
  <path d="M60.0 164h147.75" />
  <path d="M460.25 164h147.75" />
  <g class="terminal ">
  <path d="M207.75 164h0.0" />
  <path d="M236.25 164h0.0" />
  <rect height="22" rx="10" ry="10" width="28.5" x="207.75" y="153"></rect>
  <text x="222" y="168">a</text></g>
  <path d="M236.25 164h10" />
  <path d="M246.25 164h10" />
  <g class="terminal ">
  <path d="M256.25 164h0.0" />
  <path d="M284.75 164h0.0" />
  <rect height="22" rx="10" ry="10" width="28.5" x="256.25" y="153"></rect>
  <text x="270.5" y="168">b</text></g>
  <path d="M284.75 164h10" />
  <g >
  <path d="M294.75 164h0.0" />
  <path d="M460.25 164h0.0" />
  <path d="M294.75 164a10 10 0 0 0 10 -10v0a10 10 0 0 1 10 -10" marker-end="url(#arrow)" />
  <g >
  <path d="M314.75 144h125.5" /></g>
  <path d="M440.25 144a10 10 0 0 1 10 10v0a10 10 0 0 0 10 10" />
  <path d="M294.75 164h20" />
  <g >
  <path d="M314.75 164h0.0" />
  <path d="M440.25 164h0.0" />
  <g class="terminal ">
  <path d="M314.75 164h0.0" />
  <path d="M343.25 164h0.0" />
  <rect height="22" rx="10" ry="10" width="28.5" x="314.75" y="153"></rect>
  <text x="329" y="168">a</text></g>
  <path d="M343.25 164h10" />
  <path d="M353.25 164h10" />
  <g class="terminal ">
  <path d="M363.25 164h0.0" />
  <path d="M391.75 164h0.0" />
  <rect height="22" rx="10" ry="10" width="28.5" x="363.25" y="153"></rect>
  <text x="377.5" y="168">b</text></g>
  <path d="M391.75 164h10" />
  <path d="M401.75 164h10" />
  <g class="terminal ">
  <path d="M411.75 164h0.0" />
  <path d="M440.25 164h0.0" />
  <rect height="22" rx="10" ry="10" width="28.5" x="411.75" y="153"></rect>
  <text x="426" y="168">c</text></g></g>
  <path d="M440.25 164h20" /></g></g>
  <path d="M608.0 164a10 10 0 0 0 10 -10v-104a10 10 0 0 1 10 -10" marker-end="url(#far-arrow)" /></g>
  <path d="M 628.0 40 h 20 m -10 -10 v 20 m 10 -20 v 20"></path></g>
  <style>/* <![CDATA[ */
	svg.railroad-diagram {
		background-color:hsl(30,20%,95%);
	}
	svg.railroad-diagram path {
		stroke-width:2;
		stroke:black;
		fill:rgba(0,0,0,0);
	}
	svg.railroad-diagram text {
		font:bold 14px monospace;
		text-anchor:middle;
	}
	svg.railroad-diagram text.label{
		text-anchor:start;
	}
	svg.railroad-diagram text.comment{
		font:italic 12px monospace;
	}
	svg.railroad-diagram rect{
		stroke-width:3;
		stroke:black;
		fill:hsl(120,100%,90%);
	}
	svg.railroad-diagram rect.group-box {
		stroke: gray;
		stroke-dasharray: 10 5;
		fill: none;
	}
    marker#arrow path {
        d: path("M 0 0 L 10 5 L 0 10 Z");
    }
    marker#reverse-arrow path {
        d: path("M 0 0 L 10 5 L 0 10 Z");
    }
    marker#far-arrow path {
        d: path("M 0 0 L 10 5 L 0 10 Z");
    }

/* ]]> */
</style>
  <defs >
  <marker id="arrow" markerHeight="4" markerWidth="4" orient="auto" refX="-5" refY="5" viewBox="0 0 10 10">
  <polygon fill="black" points="0,0 10,5 0,10"></polygon></marker>
  <marker id="reverse-arrow" markerHeight="4" markerWidth="4" orient="auto-start-reverse" refX="-5" refY="5" viewBox="0 0 10 10">
  <polygon fill="black" points="0,0 10,5 0,10"></polygon></marker>
  <marker id="far-arrow" markerHeight="4" markerWidth="4" orient="auto" refX="5" refY="5" viewBox="0 0 10 10">
  <polygon fill="black" points="0,0 10,5 0,10"></polygon></marker></defs></svg>