<svg class="railroad-diagram" height="177" viewBox="0 0 1174.5 177" width="1174.5" xmlns="http://www.w3.org/2000/svg" xmlns:xlink="http://www.w3.org/1999/xlink">
  <g transform="translate(.5 .5)">
  <g >
  <path d="M20 46v20m10 -20v20m-10 -10h20" /></g>
  <path d="M40 56h10" />
  <g >
  <path d="M50 56h0.0" />
  <path d="M1124.5 56h0.0" />
  <g >
  <path d="M50.0 56h0.0" />
  <path d="M569.5 56h0.0" />
  <path d="M50.0 56a10 10 0 0 0 10 -10v-16a10 10 0 0 1 10 -10" marker-end="url(#arrow)" />
  <g >
  <path d="M70.0 20h479.5" /></g>
  <path d="M549.5 20a10 10 0 0 1 10 10v16a10 10 0 0 0 10 10" />
  <path d="M50.0 56h20" />
  <g >
  <path d="M70.0 56h0.0" />
  <path d="M549.5 56h0.0" />
  <path d="M70.0 56h10" />
  <g >
  <path d="M80.0 56h0.0" />
  <path d="M539.5 56h0.0" />
  <g class="terminal ">
  <path d="M80.0 56h0.0" />
  <path d="M108.5 56h0.0" />
  <rect height="22" rx="10" ry="10" width="28.5" x="80" y="45"></rect>
  <text x="94.25" y="60">A</text></g>
  <path d="M108.5 56h10" />
  <path d="M118.5 56h10" />
  <g class="terminal ">
  <path d="M128.5 56h0.0" />
  <path d="M157.0 56h0.0" />
  <rect height="22" rx="10" ry="10" width="28.5" x="128.5" y="45"></rect>
  <text x="142.75" y="60">b</text></g>
  <path d="M157.0 56h10" />
  <path d="M167.0 56h10" />
  <g class="terminal ">
  <path d="M177.0 56h0.0" />
  <path d="M205.5 56h0.0" />
  <rect height="22" rx="10" ry="10" width="28.5" x="177" y="45"></rect>
  <text x="191.25" y="60">c</text></g>
  <path d="M205.5 56h10" />
  <g >
  <path d="M215.5 56h0.0" />
  <path d="M539.5 56h0.0" />
  <path d="M215.5 56a10 10 0 0 0 10 -10v-8a10 10 0 0 1 10 -10" marker-end="url(#arrow)" />
  <g >
  <path d="M235.5 28h284.0" /></g>
  <path d="M519.5 28a10 10 0 0 1 10 10v8a10 10 0 0 0 10 10" />
  <path d="M215.5 56h20" />
  <g >
  <path d="M235.5 56h0.0" />
  <path d="M519.5 56h0.0" />
  <path d="M235.5 56h10" />
  <g >
  <path d="M245.5 56h0.0" />
  <path d="M509.5 56h0.0" />
  <g class="terminal ">
  <path d="M245.5 56h0.0" />
  <path d="M274.0 56h0.0" />
  <rect height="22" rx="10" ry="10" width="28.5" x="245.5" y="45"></rect>
  <text x="259.75" y="60">a</text></g>
  <path d="M274.0 56h10" />
  <path d="M284.0 56h10" />
  <g class="terminal ">
  <path d="M294.0 56h0.0" />
  <path d="M322.5 56h0.0" />
  <rect height="22" rx="10" ry="10" width="28.5" x="294" y="45"></rect>
  <text x="308.25" y="60">b</text></g>
  <path d="M322.5 56h10" />
  <path d="M332.5 56h10" />
  <g class="terminal ">
  <path d="M342.5 56h0.0" />
  <path d="M371.0 56h0.0" />
  <rect height="22" rx="10" ry="10" width="28.5" x="342.5" y="45"></rect>
  <text x="356.75" y="60">c</text></g>
  <path d="M371.0 56h10" />
  <g >
  <path d="M381.0 56h0.0" />
  <path d="M509.5 56h0.0" />
  <path d="M381.0 56a10 10 0 0 0 10 -10v0a10 10 0 0 1 10 -10" marker-end="url(#arrow)" />
  <g >
  <path d="M401.0 36h88.5" /></g>
  <path d="M489.5 36a10 10 0 0 1 10 10v0a10 10 0 0 0 10 10" />
  <path d="M381.0 56h20" />
  <g >
  <path d="M401.0 56h0.0" />
  <path d="M489.5 56h0.0" />
  <path d="M401.0 56h10" />
  <g >
  <path d="M411.0 56h0.0" />
  <path d="M479.5 56h0.0" />
  <path d="M411.0 56h20" />
  <g class="terminal ">
  <path d="M431.0 56h0.0" />
  <path d="M459.5 56h0.0" />
  <rect height="22" rx="10" ry="10" width="28.5" x="431" y="45"></rect>
  <text x="445.25" y="60">a</text></g>
  <path d="M459.5 56h20" />
  <path d="M411.0 56a10 10 0 0 1 10 10v10a10 10 0 0 0 10 10" marker-start="url(#far-arrow)" />
  <g class="terminal ">
  <path d="M431.0 86h0.0" />
  <path d="M459.5 86h0.0" />
  <rect height="22" rx="10" ry="10" width="28.5" x="431" y="75"></rect>
  <text x="445.25" y="90">b</text></g>
  <path d="M459.5 86a10 10 0 0 0 10 -10v-10a10 10 0 0 1 10 -10" marker-end="url(#far-arrow)" />
  <path d="M411.0 56a10 10 0 0 1 10 10v40a10 10 0 0 0 10 10" marker-start="url(#far-arrow)" />
  <g class="terminal ">
  <path d="M431.0 116h0.0" />
  <path d="M459.5 116h0.0" />
  <rect height="22" rx="10" ry="10" width="28.5" x="431" y="105"></rect>
  <text x="445.25" y="120">c</text></g>
  <path d="M459.5 116a10 10 0 0 0 10 -10v-40a10 10 0 0 1 10 -10" marker-end="url(#far-arrow)" /></g>
  <path d="M479.5 56h10" />
  <path d="M411.0 56a10 10 0 0 0 -10 10v59a10 10 0 0 0 10 10" />
  <g >
  <path d="M411.0 135h68.5" /></g>
  <path d="M479.5 135a10 10 0 0 0 10 -10v-59a10 10 0 0 0 -10 -10" marker-start="url(#reverse-arrow)" /></g>
  <path d="M489.5 56h20" /></g></g>
  <path d="M509.5 56h10" />
  <path d="M245.5 56a10 10 0 0 0 -10 10v67a10 10 0 0 0 10 10" />
  <g >
  <path d="M245.5 143h264.0" /></g>
  <path d="M509.5 143a10 10 0 0 0 10 -10v-67a10 10 0 0 0 -10 -10" marker-start="url(#reverse-arrow)" /></g>
  <path d="M519.5 56h20" /></g></g>
  <path d="M539.5 56h10" />
  <path d="M80.0 56a10 10 0 0 0 -10 10v75a10 10 0 0 0 10 10" />
  <g >
  <path d="M80.0 151h459.5" /></g>
  <path d="M539.5 151a10 10 0 0 0 10 -10v-75a10 10 0 0 0 -10 -10" marker-start="url(#reverse-arrow)" /></g>
  <path d="M549.5 56h20" /></g>
  <path d="M569.5 56h10" />
  <g class="terminal ">
  <path d="M579.5 56h0.0" />
  <path d="M608.0 56h0.0" />
  <rect height="22" rx="10" ry="10" width="28.5" x="579.5" y="45"></rect>
  <text x="593.75" y="60">a</text></g>
  <path d="M608.0 56h10" />
  <path d="M618.0 56h10" />
  <g class="terminal ">
  <path d="M628.0 56h0.0" />
  <path d="M656.5 56h0.0" />
  <rect height="22" rx="10" ry="10" width="28.5" x="628" y="45"></rect>
  <text x="642.25" y="60">b</text></g>
  <path d="M656.5 56h10" />
  <path d="M666.5 56h10" />
  <g class="terminal ">
  <path d="M676.5 56h0.0" />
  <path d="M705.0 56h0.0" />
  <rect height="22" rx="10" ry="10" width="28.5" x="676.5" y="45"></rect>
  <text x="690.75" y="60">c</text></g>
  <path d="M705.0 56h10" />
  <g >
  <path d="M715.0 56h0.0" />
  <path d="M880.5 56h0.0" />
  <path d="M715.0 56a10 10 0 0 0 10 -10v0a10 10 0 0 1 10 -10" marker-end="url(#arrow)" />
  <g >
  <path d="M735.0 36h125.5" /></g>
  <path d="M860.5 36a10 10 0 0 1 10 10v0a10 10 0 0 0 10 10" />
  <path d="M715.0 56h20" />
  <g >
  <path d="M735.0 56h0.0" />
  <path d="M860.5 56h0.0" />
  <g class="terminal ">
  <path d="M735.0 56h0.0" />
  <path d="M763.5 56h0.0" />
  <rect height="22" rx="10" ry="10" width="28.5" x="735" y="45"></rect>
  <text x="749.25" y="60">a</text></g>
  <path d="M763.5 56h10" />
  <path d="M773.5 56h10" />
  <g class="terminal ">
  <path d="M783.5 56h0.0" />
  <path d="M812.0 56h0.0" />
  <rect height="22" rx="10" ry="10" width="28.5" x="783.5" y="45"></rect>
  <text x="797.75" y="60">b</text></g>
  <path d="M812.0 56h10" />
  <path d="M822.0 56h10" />
  <g class="terminal ">
  <path d="M832.0 56h0.0" />
  <path d="M860.5 56h0.0" />
  <rect height="22" rx="10" ry="10" width="28.5" x="832" y="45"></rect>
  <text x="846.25" y="60">c</text></g></g>
  <path d="M860.5 56h20" /></g>
  <g >
  <path d="M880.5 56h0.0" />
  <path d="M989.0 56h0.0" />
  <path d="M880.5 56a10 10 0 0 0 10 -10v0a10 10 0 0 1 10 -10" marker-end="url(#arrow)" />
  <g >
  <path d="M900.5 36h68.5" /></g>
  <path d="M969.0 36a10 10 0 0 1 10 10v0a10 10 0 0 0 10 10" />
  <path d="M880.5 56h20" />
  <g >
  <path d="M900.5 56h0.0" />
  <path d="M969.0 56h0.0" />
  <path d="M900.5 56h20" />
  <g class="terminal ">
  <path d="M920.5 56h0.0" />
  <path d="M949.0 56h0.0" />
  <rect height="22" rx="10" ry="10" width="28.5" x="920.5" y="45"></rect>
  <text x="934.75" y="60">a</text></g>
  <path d="M949.0 56h20" />
  <path d="M900.5 56a10 10 0 0 1 10 10v10a10 10 0 0 0 10 10" marker-start="url(#far-arrow)" />
  <g class="terminal ">
  <path d="M920.5 86h0.0" />
  <path d="M949.0 86h0.0" />
  <rect height="22" rx="10" ry="10" width="28.5" x="920.5" y="75"></rect>
  <text x="934.75" y="90">b</text></g>
  <path d="M949.0 86a10 10 0 0 0 10 -10v-10a10 10 0 0 1 10 -10" marker-end="url(#far-arrow)" />
  <path d="M900.5 56a10 10 0 0 1 10 10v40a10 10 0 0 0 10 10" marker-start="url(#far-arrow)" />
  <g class="terminal ">
  <path d="M920.5 116h0.0" />
  <path d="M949.0 116h0.0" />
  <rect height="22" rx="10" ry="10" width="28.5" x="920.5" y="105"></rect>
  <text x="934.75" y="120">c</text></g>
  <path d="M949.0 116a10 10 0 0 0 10 -10v-40a10 10 0 0 1 10 -10" marker-end="url(#far-arrow)" />
  <path d="M900.5 56a10 10 0 0 1 10 10v70a10 10 0 0 0 10 10" marker-start="url(#far-arrow)" />
  <g class="terminal ">
  <path d="M920.5 146h0.0" />
  <path d="M949.0 146h0.0" />
  <rect height="22" rx="10" ry="10" width="28.5" x="920.5" y="135"></rect>
  <text x="934.75" y="150">d</text></g>
  <path d="M949.0 146a10 10 0 0 0 10 -10v-70a10 10 0 0 1 10 -10" marker-end="url(#far-arrow)" /></g>
  <path d="M969.0 56h20" /></g>
  <path d="M989.0 56h10" />
  <g class="terminal ">
  <path d="M999.0 56h0.0" />
  <path d="M1027.5 56h0.0" />
  <rect height="22" rx="10" ry="10" width="28.5" x="999" y="45"></rect>
  <text x="1013.25" y="60">a</text></g>
  <path d="M1027.5 56h10" />
  <path d="M1037.5 56h10" />
  <g class="terminal ">
  <path d="M1047.5 56h0.0" />
  <path d="M1076.0 56h0.0" />
  <rect height="22" rx="10" ry="10" width="28.5" x="1047.5" y="45"></rect>
  <text x="1061.75" y="60">f</text></g>
  <path d="M1076.0 56h10" />
  <path d="M1086.0 56h10" />
  <g class="terminal ">
  <path d="M1096.0 56h0.0" />
  <path d="M1124.5 56h0.0" />
  <rect height="22" rx="10" ry="10" width="28.5" x="1096" y="45"></rect>
  <text x="1110.25" y="60">g</text></g></g>
  <path d="M1124.5 56h10" />
  <path d="M 1134.5 56 h 20 m -10 -10 v 20 m 10 -20 v 20"></path></g>
  <style>/* <![CDATA[ */
	svg.railroad-diagram {
		background-color:hsl(30,20%,95%);
	}
	svg.railroad-diagram path {
		stroke-width:2;
		stroke:black;
		fill:rgba(0,0,0,0);
	}
	svg.railroad-diagram text {
		font:bold 14px monospace;
		text-anchor:middle;
	}
	svg.railroad-diagram text.label{
		text-anchor:start;
	}
	svg.railroad-diagram text.comment{
		font:italic 12px monospace;
	}
	svg.railroad-diagram rect{
		stroke-width:3;
		stroke:black;
		fill:hsl(120,100%,90%);
	}
	svg.railroad-diagram rect.group-box {
		stroke: gray;
		stroke-dasharray: 10 5;
		fill: none;
	}
    marker#arrow path {
        d: path("M 0 0 L 10 5 L 0 10 Z");
    }
    marker#reverse-arrow path {
        d: path("M 0 0 L 10 5 L 0 10 Z");
    }
    marker#far-arrow path {
        d: path("M 0 0 L 10 5 L 0 10 Z");
    }

/* ]]> */
</style>
  <defs >
  <marker id="arrow" markerHeight="4" markerWidth="4" orient="auto" refX="-5" refY="5" viewBox="0 0 10 10">
  <polygon fill="black" points="0,0 10,5 0,10"></polygon></marker>
  <marker id="reverse-arrow" markerHeight="4" markerWidth="4" orient="auto-start-reverse" refX="-5" refY="5" viewBox="0 0 10 10">
  <polygon fill="black" points="0,0 10,5 0,10"></polygon></marker>
  <marker id="far-arrow" markerHeight="4" markerWidth="4" orient="auto" refX="5" refY="5" viewBox="0 0 10 10">
  <polygon fill="black" points="0,0 10,5 0,10"></polygon></marker></defs></svg>