<svg class="railroad-diagram" height="80" viewBox="0 0 314.0 80" width="314.0" xmlns="http://www.w3.org/2000/svg" xmlns:xlink="http://www.w3.org/1999/xlink">
  <g transform="translate(.5 .5)">
  <g >
  <path d="M20 30v20m10 -20v20m-10 -10h20" /></g>
  <path d="M40 40h10" />
  <g >
  <path d="M50 40h0.0" />
  <path d="M264.0 40h0.0" />
  <g class="terminal ">
  <path d="M50.0 40h0.0" />
  <path d="M78.5 40h0.0" />
  <rect height="22" rx="10" ry="10" width="28.5" x="50" y="29"></rect>
  <text x="64.25" y="44">a</text></g>
  <path d="M78.5 40h10" />
  <g >
  <path d="M88.5 40h0.0" />
  <path d="M225.5 40h0.0" />
  <path d="M88.5 40a10 10 0 0 0 10 -10v0a10 10 0 0 1 10 -10" marker-end="url(#arrow)" />
  <g >
  <path d="M108.5 20h97.0" /></g>
  <path d="M205.5 20a10 10 0 0 1 10 10v0a10 10 0 0 0 10 10" />
  <path d="M88.5 40h20" />
  <g >
  <path d="M108.5 40h0.0" />
  <path d="M205.5 40h0.0" />
  <path d="M108.5 40h10" />
  <g >
  <path d="M118.5 40h0.0" />
  <path d="M195.5 40h0.0" />
  <g class="terminal ">
  <path d="M118.5 40h0.0" />
  <path d="M147.0 40h0.0" />
  <rect height="22" rx="10" ry="10" width="28.5" x="118.5" y="29"></rect>
  <text x="132.75" y="44">1</text></g>
  <path d="M147.0 40h10" />
  <path d="M157.0 40h10" />
  <g class="terminal ">
  <path d="M167.0 40h0.0" />
  <path d="M195.5 40h0.0" />
  <rect height="22" rx="10" ry="10" width="28.5" x="167" y="29"></rect>
  <text x="181.25" y="44">2</text></g></g>
  <path d="M195.5 40h10" />
  <path d="M118.5 40a10 10 0 0 0 -10 10v0a10 10 0 0 0 10 10" />
  <g >
  <path d="M118.5 60h77.0" /></g>
  <path d="M195.5 60a10 10 0 0 0 10 -10v0a10 10 0 0 0 -10 -10" marker-start="url(#reverse-arrow)" /></g>
  <path d="M205.5 40h20" /></g>
  <path d="M225.5 40h10" />
  <g class="terminal ">
  <path d="M235.5 40h0.0" />
  <path d="M264.0 40h0.0" />
  <rect height="22" rx="10" ry="10" width="28.5" x="235.5" y="29"></rect>
  <text x="249.75" y="44">a</text></g></g>
  <path d="M264.0 40h10" />
  <path d="M 274.0 40 h 20 m -10 -10 v 20 m 10 -20 v 20"></path></g>
  <style>/* <![CDATA[ */
	svg.railroad-diagram {
		background-color:hsl(30,20%,95%);
	}
	svg.railroad-diagram path {
		stroke-width:2;
		stroke:black;
		fill:rgba(0,0,0,0);
	}
	svg.railroad-diagram text {
		font:bold 14px monospace;
		text-anchor:middle;
	}
	svg.railroad-diagram text.label{
		text-anchor:start;
	}
	svg.railroad-diagram text.comment{
		font:italic 12px monospace;
	}
	svg.railroad-diagram rect{
		stroke-width:3;
		stroke:black;
		fill:hsl(120,100%,90%);
	}
	svg.railroad-diagram rect.group-box {
		stroke: gray;
		stroke-dasharray: 10 5;
		fill: none;
	}
    marker#arrow path {
        d: path("M 0 0 L 10 5 L 0 10 Z");
    }
    marker#reverse-arrow path {
        d: path("M 0 0 L 10 5 L 0 10 Z");
    }
    marker#far-arrow path {
        d: path("M 0 0 L 10 5 L 0 10 Z");
    }

/* ]]> */
</style>
  <defs >
  <marker id="arrow" markerHeight="4" markerWidth="4" orient="auto" refX="-5" refY="5" viewBox="0 0 10 10">
  <polygon fill="black" points="0,0 10,5 0,10"></polygon></marker>
  <marker id="reverse-arrow" markerHeight="4" markerWidth="4" orient="auto-start-reverse" refX="-5" refY="5" viewBox="0 0 10 10">
  <polygon fill="black" points="0,0 10,5 0,10"></polygon></marker>
  <marker id="far-arrow" markerHeight="4" markerWidth="4" orient="auto" refX="5" refY="5" viewBox="0 0 10 10">
  <polygon fill="black" points="0,0 10,5 0,10"></polygon></marker></defs></svg>