<svg class="railroad-diagram" height="92" viewBox="0 0 342.5 92" width="342.5" xmlns="http://www.w3.org/2000/svg" xmlns:xlink="http://www.w3.org/1999/xlink">
  <g transform="translate(.5 .5)">
  <g >
  <path d="M20 21v20m10 -20v20m-10 -10h20" /></g>
  <g >
  <path d="M40 31h0.0" />
  <path d="M302.5 31h0.0" />
  <path d="M40.0 31h20" />
  <g >
  <path d="M60.0 31h24.25" />
  <path d="M258.25 31h24.25" />
  <g class="terminal ">
  <path d="M84.25 31h0.0" />
  <path d="M112.75 31h0.0" />
  <rect height="22" rx="10" ry="10" width="28.5" x="84.25" y="20"></rect>
  <text x="98.5" y="35">d</text></g>
  <path d="M112.75 31h10" />
  <path d="M122.75 31h10" />
  <g class="terminal ">
  <path d="M132.75 31h0.0" />
  <path d="M161.25 31h0.0" />
  <rect height="22" rx="10" ry="10" width="28.5" x="132.75" y="20"></rect>
  <text x="147" y="35">a</text></g>
  <path d="M161.25 31h10" />
  <path d="M171.25 31h10" />
  <g class="terminal ">
  <path d="M181.25 31h0.0" />
  <path d="M209.75 31h0.0" />
  <rect height="22" rx="10" ry="10" width="28.5" x="181.25" y="20"></rect>
  <text x="195.5" y="35">t</text></g>
  <path d="M209.75 31h10" />
  <path d="M219.75 31h10" />
  <g class="terminal ">
  <path d="M229.75 31h0.0" />
  <path d="M258.25 31h0.0" />
  <rect height="22" rx="10" ry="10" width="28.5" x="229.75" y="20"></rect>
  <text x="244" y="35">a</text></g></g>
  <path d="M282.5 31h20" />
  <path d="M40.0 31a10 10 0 0 1 10 10v10a10 10 0 0 0 10 10" marker-start="url(#far-arrow)" />
  <g >
  <path d="M60.0 61h0.0" />
  <path d="M282.5 61h0.0" />
  <g class="terminal ">
  <path d="M60.0 61h0.0" />
  <path d="M88.5 61h0.0" />
  <rect height="22" rx="10" ry="10" width="28.5" x="60" y="50"></rect>
  <text x="74.25" y="65">a</text></g>
  <path d="M88.5 61h10" />
  <path d="M98.5 61h10" />
  <g class="terminal ">
  <path d="M108.5 61h0.0" />
  <path d="M137.0 61h0.0" />
  <rect height="22" rx="10" ry="10" width="28.5" x="108.5" y="50"></rect>
  <text x="122.75" y="65">d</text></g>
  <path d="M137.0 61h10" />
  <path d="M147.0 61h10" />
  <g class="terminal ">
  <path d="M157.0 61h0.0" />
  <path d="M185.5 61h0.0" />
  <rect height="22" rx="10" ry="10" width="28.5" x="157" y="50"></rect>
  <text x="171.25" y="65">s</text></g>
  <path d="M185.5 61h10" />
  <path d="M195.5 61h10" />
  <g class="terminal ">
  <path d="M205.5 61h0.0" />
  <path d="M234.0 61h0.0" />
  <rect height="22" rx="10" ry="10" width="28.5" x="205.5" y="50"></rect>
  <text x="219.75" y="65">b</text></g>
  <path d="M234.0 61h10" />
  <path d="M244.0 61h10" />
  <g class="terminal ">
  <path d="M254.0 61h0.0" />
  <path d="M282.5 61h0.0" />
  <rect height="22" rx="10" ry="10" width="28.5" x="254" y="50"></rect>
  <text x="268.25" y="65">c</text></g></g>
  <path d="M282.5 61a10 10 0 0 0 10 -10v-10a10 10 0 0 1 10 -10" marker-end="url(#far-arrow)" /></g>
  <path d="M 302.5 31 h 20 m -10 -10 v 20 m 10 -20 v 20"></path></g>
  <style>/* <![CDATA[ */
	svg.railroad-diagram {
		background-color:hsl(30,20%,95%);
	}
	svg.railroad-diagram path {
		stroke-width:2;
		stroke:black;
		fill:rgba(0,0,0,0);
	}
	svg.railroad-diagram text {
		font:bold 14px monospace;
		text-anchor:middle;
	}
	svg.railroad-diagram text.label{
		text-anchor:start;
	}
	svg.railroad-diagram text.comment{
		font:italic 12px monospace;
	}
	svg.railroad-diagram rect{
		stroke-width:3;
		stroke:black;
		fill:hsl(120,100%,90%);
	}
	svg.railroad-diagram rect.group-box {
		stroke: gray;
		stroke-dasharray: 10 5;
		fill: none;
	}
    marker#arrow path {
        d: path("M 0 0 L 10 5 L 0 10 Z");
    }
    marker#reverse-arrow path {
        d: path("M 0 0 L 10 5 L 0 10 Z");
    }
    marker#far-arrow path {
        d: path("M 0 0 L 10 5 L 0 10 Z");
    }

/* ]]> */
</style>
  <defs >
  <marker id="arrow" markerHeight="4" markerWidth="4" orient="auto" refX="-5" refY="5" viewBox="0 0 10 10">
  <polygon fill="black" points="0,0 10,5 0,10"></polygon></marker>
  <marker id="reverse-arrow" markerHeight="4" markerWidth="4" orient="auto-start-reverse" refX="-5" refY="5" viewBox="0 0 10 10">
  <polygon fill="black" points="0,0 10,5 0,10"></polygon></marker>
  <marker id="far-arrow" markerHeight="4" markerWidth="4" orient="auto" refX="5" refY="5" viewBox="0 0 10 10">
  <polygon fill="black" points="0,0 10,5 0,10"></polygon></marker></defs></svg>