<svg class="railroad-diagram" height="62" viewBox="0 0 225.5 62" width="225.5" xmlns="http://www.w3.org/2000/svg" xmlns:xlink="http://www.w3.org/1999/xlink">
  <g transform="translate(.5 .5)">
  <g >
  <path d="M20 21v20m10 -20v20m-10 -10h20" /></g>
  <path d="M40 31h10" />
  <g >
  <path d="M50 31h0.0" />
  <path d="M175.5 31h0.0" />
  <g class="terminal " id="78">
  <path d="M50.0 31h0.0" />
  <path d="M78.5 31h0.0" marker-end="url(#arrow)" />
  <rect height="22" rx="10" ry="10" width="28.5" x="50" y="20"></rect>
  <text x="64.25" y="35">a</text></g>
  <path d="M78.5 31h10" />
  <path d="M88.5 31h10" />
  <g class="terminal " id="79">
  <path d="M98.5 31h0.0" />
  <path d="M127.0 31h0.0" marker-end="url(#arrow)" />
  <rect height="22" rx="10" ry="10" width="28.5" x="98.5" y="20"></rect>
  <text x="112.75" y="35">b</text></g>
  <path d="M127.0 31h10" />
  <path d="M137.0 31h10" />
  <g class="terminal " id="80">
  <path d="M147.0 31h0.0" />
  <path d="M175.5 31h0.0" marker-end="url(#arrow)" />
  <rect height="22" rx="10" ry="10" width="28.5" x="147" y="20"></rect>
  <text x="161.25" y="35">c</text></g></g>
  <path d="M175.5 31h10" />
  <path d="M 185.5 31 h 20 m -10 -10 v 20 m 10 -20 v 20"></path></g>
  <style>/* <![CDATA[ */
	svg.railroad-diagram {
		background-color:hsl(30,20%,95%);
	}
	svg.railroad-diagram path {
		stroke-width:3;
		stroke:black;
		fill:rgba(0,0,0,0);
	}
	svg.railroad-diagram text {
		font:bold 14px monospace;
		text-anchor:middle;
	}
	svg.railroad-diagram text.label{
		text-anchor:start;
	}
	svg.railroad-diagram text.comment{
		font:italic 12px monospace;
	}
	svg.railroad-diagram rect{
		stroke-width:3;
		stroke:black;
		fill:hsl(120,100%,90%);
	}
	svg.railroad-diagram rect.group-box {
		stroke: gray;
		stroke-dasharray: 10 5;
		fill: none;
	}
    marker#arrow path {
        d: path("M 0 0 L 10 5 L 0 10 Z");
    }
    marker#reverse-arrow path {
        d: path("M 0 0 L 10 5 L 0 10 Z");
    }
    marker#far-arrow path {
        d: path("M 0 0 L 10 5 L 0 10 Z");
    }

/* ]]> */
</style>
  <defs >
  <marker id="arrow" markerHeight="3" markerWidth="3" orient="auto" refX="-5" refY="5" viewBox="0 0 10 10">
  <polygon fill="black" points="0,0 10,5 0,10"></polygon></marker>
  <marker id="reverse-arrow" markerHeight="3" markerWidth="3" orient="auto-start-reverse" refX="-5" refY="5" viewBox="0 0 10 10">
  <polygon fill="black" points="0,0 10,5 0,10"></polygon></marker>
  <marker id="far-arrow" markerHeight="3" markerWidth="3" orient="auto" refX="-5" refY="5" viewBox="0 0 10 10">
  <polygon fill="black" points="0,0 10,5 0,10"></polygon></marker></defs></svg>