<svg class="railroad-diagram" height="80" viewBox="0 0 732.0 80" width="732.0" xmlns="http://www.w3.org/2000/svg" xmlns:xlink="http://www.w3.org/1999/xlink">
  <g transform="translate(.5 .5)">
  <g >
  <path d="M20 30v20m10 -20v20m-10 -10h20" /></g>
  <path d="M40 40h10" />
  <g >
  <path d="M50 40h0.0" />
  <path d="M682.0 40h0.0" />
  <g class="terminal " id="47">
  <path d="M50.0 40h0.0" />
  <path d="M78.5 40h0.0" marker-end="url(#arrow)" />
  <rect height="22" rx="10" ry="10" width="28.5" x="50" y="29"></rect>
  <text x="64.25" y="44">a</text></g>
  <path d="M78.5 40h10" />
  <path d="M88.5 40h10" />
  <g class="terminal " id="48">
  <path d="M98.5 40h0.0" />
  <path d="M127.0 40h0.0" marker-end="url(#arrow)" />
  <rect height="22" rx="10" ry="10" width="28.5" x="98.5" y="29"></rect>
  <text x="112.75" y="44">b</text></g>
  <path d="M127.0 40h10" />
  <path d="M137.0 40h10" />
  <g class="terminal " id="49">
  <path d="M147.0 40h0.0" />
  <path d="M175.5 40h0.0" marker-end="url(#arrow)" />
  <rect height="22" rx="10" ry="10" width="28.5" x="147" y="29"></rect>
  <text x="161.25" y="44">c</text></g>
  <path d="M175.5 40h10" />
  <g >
  <path d="M185.5 40h0.0" />
  <path d="M371.0 40h0.0" />
  <path d="M185.5 40a10 10 0 0 0 10 -10v0a10 10 0 0 1 10 -10" marker-end="url(#arrow)" />
  <g >
  <path d="M205.5 20h145.5" /></g>
  <path d="M351.0 20a10 10 0 0 1 10 10v0a10 10 0 0 0 10 10" />
  <path d="M185.5 40h20" />
  <g >
  <path d="M205.5 40h0.0" />
  <path d="M351.0 40h0.0" />
  <path d="M205.5 40h10" />
  <g >
  <path d="M215.5 40h0.0" />
  <path d="M341.0 40h0.0" />
  <g class="terminal " id="50">
  <path d="M215.5 40h0.0" />
  <path d="M244.0 40h0.0" marker-end="url(#arrow)" />
  <rect height="22" rx="10" ry="10" width="28.5" x="215.5" y="29"></rect>
  <text x="229.75" y="44">a</text></g>
  <path d="M244.0 40h10" />
  <path d="M254.0 40h10" />
  <g class="terminal " id="51">
  <path d="M264.0 40h0.0" />
  <path d="M292.5 40h0.0" marker-end="url(#arrow)" />
  <rect height="22" rx="10" ry="10" width="28.5" x="264" y="29"></rect>
  <text x="278.25" y="44">b</text></g>
  <path d="M292.5 40h10" />
  <path d="M302.5 40h10" />
  <g class="terminal " id="52">
  <path d="M312.5 40h0.0" />
  <path d="M341.0 40h0.0" marker-end="url(#arrow)" />
  <rect height="22" rx="10" ry="10" width="28.5" x="312.5" y="29"></rect>
  <text x="326.75" y="44">c</text></g></g>
  <path d="M341.0 40h10" />
  <path d="M215.5 40a10 10 0 0 0 -10 10v0a10 10 0 0 0 10 10" />
  <g >
  <path d="M215.5 60h125.5" /></g>
  <path d="M341.0 60a10 10 0 0 0 10 -10v0a10 10 0 0 0 -10 -10" marker-start="url(#reverse-arrow)" /></g>
  <path d="M351.0 40h20" /></g>
  <path d="M371.0 40h10" />
  <g class="terminal " id="53">
  <path d="M381.0 40h0.0" />
  <path d="M409.5 40h0.0" marker-end="url(#arrow)" />
  <rect height="22" rx="10" ry="10" width="28.5" x="381" y="29"></rect>
  <text x="395.25" y="44">a</text></g>
  <path d="M409.5 40h10" />
  <path d="M419.5 40h10" />
  <g class="terminal " id="54">
  <path d="M429.5 40h0.0" />
  <path d="M458.0 40h0.0" marker-end="url(#arrow)" />
  <rect height="22" rx="10" ry="10" width="28.5" x="429.5" y="29"></rect>
  <text x="443.75" y="44">b</text></g>
  <path d="M458.0 40h10" />
  <path d="M468.0 40h10" />
  <g class="terminal " id="55">
  <path d="M478.0 40h0.0" />
  <path d="M506.5 40h0.0" marker-end="url(#arrow)" />
  <rect height="22" rx="10" ry="10" width="28.5" x="478" y="29"></rect>
  <text x="492.25" y="44">c</text></g>
  <path d="M506.5 40h10" />
  <g >
  <path d="M516.5 40h0.0" />
  <path d="M682.0 40h0.0" />
  <path d="M516.5 40a10 10 0 0 0 10 -10v0a10 10 0 0 1 10 -10" marker-end="url(#arrow)" />
  <g >
  <path d="M536.5 20h125.5" /></g>
  <path d="M662.0 20a10 10 0 0 1 10 10v0a10 10 0 0 0 10 10" />
  <path d="M516.5 40h20" />
  <g >
  <path d="M536.5 40h0.0" />
  <path d="M662.0 40h0.0" />
  <g class="terminal " id="56">
  <path d="M536.5 40h0.0" />
  <path d="M565.0 40h0.0" marker-end="url(#arrow)" />
  <rect height="22" rx="10" ry="10" width="28.5" x="536.5" y="29"></rect>
  <text x="550.75" y="44">a</text></g>
  <path d="M565.0 40h10" />
  <path d="M575.0 40h10" />
  <g class="terminal " id="57">
  <path d="M585.0 40h0.0" />
  <path d="M613.5 40h0.0" marker-end="url(#arrow)" />
  <rect height="22" rx="10" ry="10" width="28.5" x="585" y="29"></rect>
  <text x="599.25" y="44">b</text></g>
  <path d="M613.5 40h10" />
  <path d="M623.5 40h10" />
  <g class="terminal " id="58">
  <path d="M633.5 40h0.0" />
  <path d="M662.0 40h0.0" marker-end="url(#arrow)" />
  <rect height="22" rx="10" ry="10" width="28.5" x="633.5" y="29"></rect>
  <text x="647.75" y="44">c</text></g></g>
  <path d="M662.0 40h20" /></g></g>
  <path d="M682.0 40h10" />
  <path d="M 692.0 40 h 20 m -10 -10 v 20 m 10 -20 v 20"></path></g>
  <style>/* <![CDATA[ */
	svg.railroad-diagram {
		background-color:hsl(30,20%,95%);
	}
	svg.railroad-diagram path {
		stroke-width:3;
		stroke:black;
		fill:rgba(0,0,0,0);
	}
	svg.railroad-diagram text {
		font:bold 14px monospace;
		text-anchor:middle;
	}
	svg.railroad-diagram text.label{
		text-anchor:start;
	}
	svg.railroad-diagram text.comment{
		font:italic 12px monospace;
	}
	svg.railroad-diagram rect{
		stroke-width:3;
		stroke:black;
		fill:hsl(120,100%,90%);
	}
	svg.railroad-diagram rect.group-box {
		stroke: gray;
		stroke-dasharray: 10 5;
		fill: none;
	}
    marker#arrow path {
        d: path("M 0 0 L 10 5 L 0 10 Z");
    }
    marker#reverse-arrow path {
        d: path("M 0 0 L 10 5 L 0 10 Z");
    }
    marker#far-arrow path {
        d: path("M 0 0 L 10 5 L 0 10 Z");
    }

/* ]]> */
</style>
  <defs >
  <marker id="arrow" markerHeight="3" markerWidth="3" orient="auto" refX="-5" refY="5" viewBox="0 0 10 10">
  <polygon fill="black" points="0,0 10,5 0,10"></polygon></marker>
  <marker id="reverse-arrow" markerHeight="3" markerWidth="3" orient="auto-start-reverse" refX="-5" refY="5" viewBox="0 0 10 10">
  <polygon fill="black" points="0,0 10,5 0,10"></polygon></marker>
  <marker id="far-arrow" markerHeight="3" markerWidth="3" orient="auto" refX="-5" refY="5" viewBox="0 0 10 10">
  <polygon fill="black" points="0,0 10,5 0,10"></polygon></marker></defs></svg>